<?xml version="1.0" encoding="UTF-8"?>
<svg id="Layer_1" xmlns="http://www.w3.org/2000/svg" version="1.1" viewBox="0 0 584.59 141.65">
  <!-- Generator: Adobe Illustrator 30.4.0, SVG Export Plug-In . SVG Version: 2.1.4 Build 226)  -->
  <path d="M130.5.08c16.7,2.88,29.17,16.83,29.3,33.78l.12,15.22-28.39.05-.46-15.67c-.07-2.34-3.98-4.65-6.11-4.2-1.8.38-4.65,2.87-4.65,5.18l.02,72.53c0,2.64,3.45,5.09,5.55,5.08s5.27-2.64,5.31-5.03l.23-14.96,28.52.07-.19,16.35c-.19,16.17-12.63,29.65-29.14,32.66-20.01,3.64-40.49-12.04-40.5-32.72l-.05-75.52c-.01-16.88,13.63-30.01,29.4-32.86l11.04.07Z"/>
  <path d="M217.31.08c16.82,3.1,29.09,17.18,29.15,34.32l.06,14.63-28.3.11-.48-15.46c-.08-2.52-3.76-4.85-5.95-4.45-1.94.35-4.82,2.75-4.82,5.2l.02,72.53c0,2.67,3.53,5.15,5.64,5.02,2.23-.14,5.21-2.63,5.24-4.99l.22-14.94h28.2s.37,11.99.37,11.99c.56,17.95-10.72,33.57-29.32,37.05-19.6,3.68-40.48-11.64-40.53-32.22l-.17-75.45c-.04-17.28,13.46-30.66,29.66-33.43l10.98.08Z"/>
  <path d="M554.08,140.12l-.78-45.01-9.12,44.67c-7.27,1.13-14.8,1.09-22.32.04l-9.84-46.96-.26,47.1c-10.24.94-19.99,1.03-30.23.01V.89s36.12.02,36.12.02l15.39,71.85,15.05-71.61,36.5-.33-.06,139.16c-10.7.94-19.33.89-30.45.15Z"/>
  <path d="M45.07,124.34l-12.35.16-2.05,15.6c-10.24.8-19.9.87-30.67-.13L23.88,1.03c10.31-.42,20-.42,30.4,0l22.7,138.92c-10.31,1.01-19.61.9-29.83.16l-2.09-15.77ZM42.52,101.82l-3.52-26.93-3.65,27.02,7.17-.1Z"/>
  <path d="M381.14,124.44h-12.42s-2,15.54-2,15.54c-10.01.92-19.62.96-30.72,0L359.87,1.01l30.37-.08,22.72,138.93c-10.19,1.13-19.84,1.01-29.93.15l-1.9-15.58ZM378.51,101.86l-3.55-25.84-3.6,25.65,7.16.18Z"/>
  <path d="M324.74,109.95l.26,30.24c-19.97.77-39.05.71-59.83.08l-.03-139.07c9.95-.63,19.49-.57,30.38-.29l.02,108.91,29.2.13Z"/>
  <rect x="428.3" y=".69" width="30.43" height="140.01"/>
</svg>