<?xml version="1.0" encoding="UTF-8"?>
<svg id="Layer_1" data-name="Layer 1" xmlns="http://www.w3.org/2000/svg" viewBox="0 0 662.88 425.36">
  <defs>
    <style>
      .cls-1 {
        fill: #21221e;
      }

      .cls-2 {
        fill: #d0b879;
      }

      .cls-3 {
        fill: #fdfdfd;
      }
    </style>
  </defs>
  <path class="cls-3" d="M21.93,104.97c-4.75-26.18-3.15-67.64,20.08-81.32,13-7.66,30.92-5.85,41.82,4.49,7.32,6.94,9.71,16.37,12.58,25.63l18.27-5.41c-1.27-6.88-3.54-12.8-6.54-18.26C99.74,11.59,82,2.67,62.27,2.2,38.47,1.64,18.41,13.56,8.55,35.49,1.99,50.08-.06,65.65,0,81.95c.06,15.99,2.08,31.16,8.55,45.54,9.45,21.02,28.69,32.85,51.73,32.61,32.53-.33,49.92-18.85,56.57-49.67l-17.97-3.16c-5.13,20.5-14.93,35.88-36.67,36.01-22.95.13-36.31-16.45-40.27-38.31ZM364.93,157.75l.68-62.62c.09-8.66,6.13-17.03,10.88-23.7,5.99-8.4,15.29-11.52,25.2-11.84l.05-17.94c-15.48-1.07-28.22,6.64-36.25,20.11l-.43-18.48-18.27.14.02,114.53,18.11-.2ZM598.71,74.02c10.41-12.52,29.51-22.9,40.74-13.27,3.5,3.01,5.31,8.35,5.32,13.23l.09,83.95,18.03-.09-.45-89.29c-.04-8.83-4.78-16.44-11.05-21.7-18.53-11.5-39.65-5.02-55.57,10.63-4.63-9.02-12.8-14.49-22.94-15.96-14.08-2.04-27.32,3.65-37.6,13.87-1.26-4.41-.52-7.91-.54-12.04l-18.41.11v114.38s18.3.09,18.3.09v-83.92c9.53-11.32,25.21-21.18,37.71-15.17,5.08,2.44,8.15,8.2,8.17,14.16l.18,84.85,18.04-.02v-83.82ZM311.59,270.26c-8.44,1.19-15.49,1.27-15.47-4.31l.16-44.71,14.71-.32v-7.88s-14.79-.11-14.79-.11l-.24-21.33-8.71.23-.26,20.79-10.4.34.17,8.11c3.91-.23,6.73-.49,10.33.3l.08,48.6c.02,10.24,12.63,9.84,24.49,7.97l-.07-7.69ZM414.14,270.18c-4.55.77-7.27,1.06-10.62.53-3.03-.48-4.65-2.7-4.64-5.73l.12-43.98,14.84-.12.12-7.84-14.9-.11-.24-21.42-8.89.05-.12,21.35-10.45.09v7.88s10.39.17,10.39.17l.29,50.18c.05,8.27,13.24,8.71,24.01,6.84l.1-7.89ZM195.65,237.31l-.04-8.29-30.89-.27.18-27.95,43.71-.17v-8.24s-54.24-.02-54.24-.02v85.25s56.39.01,56.39.01v-8.23s-45.94-.02-45.94-.02l-.02-31.98,30.87-.1ZM258.22,276.93c8.22-2.97,11.95-10.27,11.68-18.33-.25-7.74-5.33-13.47-13.26-16.18l-18.38-6.28c-3.52-1.2-5.9-4.38-5.73-7.7.14-2.77,1.89-6.05,5.01-7.35,8.34-3.46,17.16.04,22.57,7.5,2.95-1.57,5-3.19,7.02-5.8-8.2-10.38-22.6-14.29-34.82-8.56-8.99,4.21-11.7,16.01-6.68,24.26,2.64,4.34,7.35,6.38,11.95,7.91l16.45,5.47c4.05,1.35,6.54,4.61,6.45,8.58-.08,3.37-1.68,6.82-5.36,8.54-9.63,4.5-20.61.59-26.5-8.17-2.98,2.02-5.49,3.35-7.42,6.04,8.9,11.1,23.91,14.78,37,10.05ZM351.82,364.3c-27.54,2.02-52.57,21.62-68.39,42.82-2.59,3.47-6.43,5.11-7.52,10.48,13.87-3.61,27.42-5.27,40.11-11.09,17.27-7.92,33.43-17.68,48.19-29.51l22.45-21.69c19.96-3.23,38.48-8.63,58.08-15.55-5.46,6.38-13.18,9.01-20.6,12.18-21.86,6.74-42.52,29.63-51.7,50.16l-10.39,23.26c12.85-6.94,25.07-12.75,36.18-21.49,13.83-10.9,25.08-24.06,36.03-37.85l17.69-29.41,23.15-11.78c32.48-18.31,63.03-47.97,65.09-86.61-1.84-.47-3.13-.51-5.24-.05-2.46,46.99-49.54,79.66-90.27,96l-34.58-10.98c-17.08-3.18-34.34-4.94-51.85-4.3-14.35.53-27.48,4.78-41.78,7.79l15.66,7.35c25.23,11.85,54.18,16.81,80.21,6.03,9.56-3.96,19.38-6,30.22-4.68-37.5,14.33-77.5,22.59-118.13,20.08l-23.49-7.23c-13.2-1.88-26.27-3.89-39.7-3.02l-28.86,5.66,14.29,6.76c13.81,6.54,30.06,9.23,45.38,5.96,8.8-1.88,16.9-4.17,26.29-3.88,20.53.65,40.17-.48,61.55-3.06-8.22,5.76-17.97,6.3-28.07,7.64ZM462.94,322.17c4.17-2.95,2.4-9.51-.45-12.43-5.71-5.84-13.75-8.08-21.56-5.92-2.92.81-5.03,3.73-5.37,5.94-.45,2.92.36,5.19,2.43,7.57,5.85,6.72,16.79,10.6,24.94,4.84ZM475.87,372.8c7.72-10.43,7.73-26.15-.34-35.8-4.55-5.44-12.23-5.37-16.64-.16-8.42,9.95-8.93,25.14-1.52,35.74,2.32,3.32,5.9,5.35,9.33,5.2,2.96-.13,6.67-1.61,9.16-4.98Z"/>
  <path class="cls-2" d="M351.82,364.3c10.1-1.34,19.84-1.88,28.07-7.64-21.38,2.58-41.02,3.71-61.55,3.06-9.39-.3-17.49,2-26.29,3.88-15.32,3.27-31.56.57-45.38-5.96l-14.29-6.76,28.86-5.66c13.43-.87,26.5,1.14,39.7,3.02l23.49,7.23c40.63,2.5,80.62-5.76,118.13-20.08-10.84-1.32-20.66.72-30.22,4.68-26.04,10.77-54.99,5.82-80.21-6.03l-15.66-7.35c14.3-3.01,27.43-7.26,41.78-7.79,17.51-.64,34.77,1.12,51.85,4.3l34.58,10.98c40.73-16.34,87.81-49.01,90.27-96,2.11-.47,3.41-.43,5.24.05-2.06,38.64-32.61,68.31-65.09,86.61l-23.15,11.78-17.69,29.41c-10.95,13.8-22.2,26.96-36.03,37.85-11.1,8.75-23.33,14.56-36.18,21.49l10.39-23.26c9.17-20.53,29.84-43.42,51.7-50.16,7.42-3.17,15.14-5.81,20.6-12.18-19.61,6.92-38.12,12.32-58.08,15.55l-22.45,21.69c-14.76,11.84-30.92,21.59-48.19,29.51-12.69,5.82-26.24,7.48-40.11,11.09,1.1-5.37,4.93-7.01,7.52-10.48,15.82-21.2,40.85-40.79,68.39-42.82Z"/>
  <path class="cls-2" d="M475.87,372.8c-2.49,3.36-6.2,4.84-9.16,4.98-3.43.16-7.01-1.88-9.33-5.2-7.41-10.6-6.91-25.79,1.52-35.74,4.41-5.21,12.09-5.28,16.64.16,8.07,9.65,8.06,25.37.34,35.8Z"/>
  <path class="cls-2" d="M462.94,322.17c-8.15,5.76-19.09,1.88-24.94-4.84-2.07-2.38-2.89-4.65-2.43-7.57.34-2.21,2.44-5.13,5.37-5.94,7.81-2.15,15.85.08,21.56,5.92,2.85,2.92,4.62,9.48.45,12.43Z"/>
  <path class="cls-1" d="M598.71,74.02v83.82s-18.02.02-18.02.02l-.18-84.85c-.01-5.96-3.09-11.72-8.17-14.16-12.51-6.01-28.18,3.85-37.71,15.17v83.92s-18.31-.09-18.31-.09V43.48s18.41-.11,18.41-.11c.02,4.13-.73,7.63.54,12.04,10.28-10.22,23.52-15.92,37.6-13.87,10.15,1.47,18.32,6.94,22.94,15.96,15.93-15.65,37.05-22.13,55.57-10.63,6.27,5.26,11.01,12.86,11.05,21.7l.45,89.29-18.03.09-.09-83.95c0-4.88-1.81-10.23-5.32-13.23-11.23-9.63-30.32.75-40.74,13.27Z"/>
  <path class="cls-1" d="M409.13,129.52c-.75-20.79,12.08-31.64,30.16-38.42,12.21-4.58,24.23-7.38,37.75-9.69,1.58-6.23.6-14.13-4.38-18.87-10.89-10.37-38.43-6.48-44.62,12.62l-16.05-8.55c11.6-23.22,39.87-30.94,63.44-21.86,12.51,4.82,20.33,15.74,20.39,29.37l.3,67.83,2.35,15.93-18.64-.17-1.74-13.17c-12.27,12.45-29.02,18.27-45.83,14.36-13.95-3.25-22.59-14.75-23.12-29.36ZM454.76,142.18c7.83-3.25,17.93-8.37,22.35-15.83l.83-28.68c-21.91,3.31-55.53,13.55-50.28,34.14,2.65,10.39,15.11,15.35,27.11,10.37Z"/>
  <path class="cls-1" d="M324.78,71.5c11.29,31.56,4.19,78.24-30.03,86.97-16.64,4.25-31.4.22-43.45-10.76-1.85,3.57-1.97,6.57-2.67,10.04l-13.47.19,1.06-12.11V.05s17.75-.05,17.75-.05l.16,52.7c8.79-6.27,17.41-11.32,28.12-11.51,19.34-.34,35.98,11.97,42.54,30.31ZM271.23,142.28c15.47,5.88,31.06-1.82,36.43-17.13,5.55-15.8,5.23-33.47-.01-49.44-4.97-15.14-20.81-22.38-35.41-16.79-7.18,2.75-12.85,7.59-18.24,13.13l-.08,57c4.81,5.36,10.09,10.49,17.3,13.23Z"/>
  <path class="cls-1" d="M21.93,104.97c3.96,21.85,17.32,38.44,40.27,38.31,21.74-.13,31.54-15.51,36.67-36.01l17.97,3.16c-6.65,30.82-24.03,49.33-56.57,49.67-23.04.23-42.28-11.6-51.73-32.61C2.08,113.11.07,97.94,0,81.95c-.07-16.29,1.99-31.87,8.55-46.46C18.41,13.56,38.47,1.64,62.27,2.2c19.73.47,37.47,9.39,45.87,27.91,3,5.45,5.27,11.38,6.54,18.26l-18.27,5.41c-2.87-9.26-5.26-18.69-12.58-25.63-10.9-10.34-28.82-12.15-41.82-4.49-23.23,13.68-24.83,55.14-20.08,81.32Z"/>
  <path class="cls-1" d="M175.78,160.02c-19.6,1.19-35.88-8.37-43.78-26.1-12.36-27.75-8.83-72.73,19.38-87.7,13.2-7,29.36-6.97,42.49.13,27.7,14.99,31.25,58.09,19.89,86.01-6.55,16.09-20.33,26.59-37.98,27.66ZM196.69,73.8c-4.29-10.45-13.61-16.76-23.99-16.81-29.38-.14-35.27,43.57-24.36,70.47,4.5,11.09,14.22,17.16,25.34,16.74,28.44-1.07,33.65-44.49,23.01-70.41Z"/>
  <path class="cls-1" d="M364.93,157.75l-18.11.2-.02-114.53,18.27-.14.43,18.48c8.03-13.47,20.77-21.17,36.25-20.11l-.05,17.94c-9.92.31-19.22,3.44-25.2,11.84-4.75,6.67-10.79,15.04-10.88,23.7l-.68,62.62Z"/>
  <polygon class="cls-1" points="195.65 237.31 164.78 237.41 164.8 269.39 210.73 269.41 210.74 277.64 154.35 277.63 154.35 192.37 208.6 192.39 208.6 200.63 164.89 200.8 164.71 228.75 195.61 229.02 195.65 237.31"/>
  <path class="cls-1" d="M359.67,270.19c-7.97,7.95-20.42,11.76-30.83,6.15-6.18-3.33-8.29-10.3-8.05-16.6.65-17.32,21.93-21.97,39.04-25.11,1.07-3.73.18-7.72-1.94-10.72-1.94-2.74-5.79-3.9-9.66-4.09-7.59-.37-14.26,2.77-17.15,9.88-3.18-.94-6.07-2.25-8.2-4.59,6.06-11.21,18.27-14.94,30.22-12.93,9.01,1.52,16.33,7.78,16.37,17.26l.15,38.49,1.29,9.66-9.49.06c-.44-2.21.49-3.46-1.74-7.47ZM360.27,260.5l-.07-17.57c-15.07,2.02-34.8,9.94-29.23,21.7,1.83,3.87,6.25,6.93,11.19,6.19,7.02-1.06,13-5.07,18.12-10.32Z"/>
  <path class="cls-1" d="M466.45,260.42c3.09-.01,5.44,1.73,7.75,3.31-4.63,9.99-13.31,15.03-23.98,15.27-12.92.29-23.67-7.13-27.21-19.85-2.62-9.42-2.49-19.78.3-29.14,3.8-12.73,15.05-19.82,27.98-18.16,17.13,2.2,22.27,17.75,20.73,35.38l-41.45.19c-.05,8.8,3.49,17.17,10.9,21.32,8.9,4.99,19.88.97,24.98-8.32ZM462.89,239c0-7.96-2.26-13.33-7.52-17.33-5.17-2.7-11.82-2.8-16.77.63-5.46,3.77-7.63,10.06-7.73,16.92l32.01-.22Z"/>
  <path class="cls-1" d="M258.22,276.93c-13.09,4.73-28.1,1.05-37-10.05,1.93-2.69,4.44-4.02,7.42-6.04,5.88,8.76,16.86,12.67,26.5,8.17,3.67-1.72,5.28-5.17,5.36-8.54.09-3.98-2.4-7.24-6.45-8.58l-16.45-5.47c-4.6-1.53-9.31-3.57-11.95-7.91-5.02-8.25-2.31-20.05,6.68-24.26,12.22-5.73,26.62-1.82,34.82,8.56-2.02,2.61-4.08,4.23-7.02,5.8-5.41-7.46-14.23-10.97-22.57-7.5-3.12,1.29-4.87,4.58-5.01,7.35-.17,3.32,2.21,6.5,5.73,7.7l18.38,6.28c7.93,2.71,13.01,8.44,13.26,16.18.27,8.06-3.46,15.36-11.68,18.33Z"/>
  <path class="cls-1" d="M414.14,270.18l-.1,7.89c-10.77,1.87-23.96,1.43-24.01-6.84l-.29-50.18-10.37-.17v-7.88s10.44-.09,10.44-.09l.12-21.35,8.89-.05.24,21.42,14.9.11-.12,7.84-14.84.12-.12,43.98c0,3.03,1.61,5.25,4.64,5.73,3.34.53,6.07.24,10.62-.53Z"/>
  <path class="cls-1" d="M311.59,270.26l.07,7.69c-11.86,1.87-24.48,2.27-24.49-7.97l-.08-48.6c-3.6-.78-6.42-.53-10.33-.3l-.17-8.11,10.4-.34.26-20.79,8.71-.23.24,21.33,14.8.11v7.88s-14.71.32-14.71.32l-.16,44.71c-.02,5.59,7.03,5.51,15.47,4.31Z"/>
</svg>