<?xml version="1.0" encoding="UTF-8"?>
<svg id="Layer_1" data-name="Layer 1" xmlns="http://www.w3.org/2000/svg" viewBox="0 0 1020.27 221.26">
  <polygon points="338.27 0 363.06 96.96 388.27 0 493.27 0 493.01 221.34 412.07 221.38 411.82 129.66 384.35 221.37 342.55 221.28 315.45 130.58 314.87 221.37 233.94 221.35 234.28 0 338.27 0"/>
  <path d="M916.27,0c55.85,5.45,98.99,44.32,104,101l-.27,18.9c-2.56,28.23-14.38,54.39-36.61,73.36-20.29,17.32-45.96,27.62-73.18,27.7l-95.52.29L814.27,0h102ZM936.21,97.12c-4.74-18.22-22.33-22.88-40.46-20.85v68.9c7.14.36,14.73.4,21.84-1.75,19.4-5.85,23.43-27.82,18.62-46.31Z"/>
  <polygon points="732.27 0 732.26 64.18 700.66 64.32 700.67 221.37 619.74 221.37 619.74 64.25 588.03 64.21 588.27 0 732.27 0"/>
  <polygon points="80.28 0 80.68 157.01 138.91 157 138.9 221.37 -.29 221.35 0 0 80.28 0"/>
  <polygon points="581.27 0 581.12 220.77 500.06 220.76 500.27 0 581.27 0"/>
  <polygon points="227.28 0 226.89 220.75 145.84 220.79 146.28 0 227.28 0"/>
  <path d="M807.27,0l.38,34.05c0,3.89-.83,8.45-2.2,12.1l-19.49,51.79-41.8.04,12.63-33.89c-13.53-7.73-19.71-22.26-16.69-37.3,2.62-13.04,13.59-23.84,27.18-26.79h40Z"/>
</svg>