<svg width="278" height="31" viewBox="0 0 278 31" fill="none" xmlns="http://www.w3.org/2000/svg">
<path d="M49.2527 24.3064C47.9946 24.3064 46.8264 24.1767 45.7552 23.9212C44.684 23.6619 43.7494 23.2958 42.955 22.8116C42.1606 22.3311 41.5388 21.7324 41.0966 21.0193C40.6545 20.3024 40.4316 19.4787 40.4316 18.5406C40.4316 18.4453 40.4316 18.3537 40.4316 18.2584C40.4316 18.1631 40.4424 18.083 40.464 18.0105L45.2735 18.0105C45.2735 18.0563 45.2735 18.1096 45.2735 18.1707C45.2735 18.228 45.2735 18.2813 45.2735 18.3308C45.2951 18.8952 45.4928 19.3529 45.8702 19.7037C46.2441 20.0545 46.7437 20.3062 47.362 20.4587C47.9803 20.6113 48.6345 20.6875 49.3174 20.6875C49.9573 20.6875 50.5827 20.6417 51.1902 20.5464C51.7977 20.4511 52.3081 20.2642 52.7143 19.982C53.1241 19.6999 53.3289 19.3261 53.3289 18.8571C53.3289 18.2698 53.0845 17.839 52.5992 17.5568C52.114 17.2746 51.4454 17.0535 50.5935 16.8895C49.7416 16.7255 48.7854 16.5386 47.725 16.325C46.8408 16.161 45.996 15.9514 45.1872 15.6921C44.3821 15.4327 43.656 15.101 43.0161 14.6891C42.3763 14.2772 41.8659 13.751 41.492 13.1066C41.1146 12.4621 40.9277 11.6576 40.9277 10.6966C40.9277 9.68988 41.1362 8.82033 41.5567 8.09199C41.9773 7.36365 42.574 6.76873 43.3468 6.2998C44.1197 5.83074 45.0327 5.48371 46.0823 5.26255C47.1319 5.04139 48.2642 4.92691 49.4792 4.92691C50.6079 4.92691 51.6683 5.03755 52.664 5.26255C53.6597 5.48371 54.5223 5.81539 55.2485 6.24633C55.9782 6.68111 56.5569 7.2264 56.9882 7.88234C57.4195 8.53815 57.6352 9.278 57.6352 10.0978C57.6352 10.2389 57.6352 10.3686 57.6352 10.4829C57.6352 10.6013 57.6245 10.6927 57.6029 10.7652L52.797 10.7653L52.797 10.5174C52.797 10.0712 52.646 9.70894 52.3476 9.42677C52.0493 9.14446 51.6395 8.92714 51.1219 8.77467C50.6007 8.62206 50.0112 8.54583 49.3462 8.54583C49.0155 8.54583 48.6381 8.56872 48.2175 8.61452C47.7969 8.66018 47.3943 8.74409 47.0061 8.86228C46.6179 8.9806 46.3088 9.14446 46.0787 9.35424C45.8487 9.56402 45.73 9.83468 45.73 10.1627C45.73 10.5859 45.9385 10.9177 46.3591 11.1656C46.7796 11.4135 47.3368 11.6041 48.0342 11.7452C48.7315 11.8863 49.4864 12.0389 50.3059 12.2029C51.2333 12.4125 52.1643 12.63 53.0917 12.8548C54.0192 13.0761 54.871 13.3774 55.6438 13.751C56.4168 14.1248 57.0242 14.6662 57.4663 15.3679C57.9084 16.0696 58.1277 17.0115 58.1277 18.1822C58.1277 19.3071 57.912 20.2642 57.4806 21.0498C57.0494 21.8353 56.4382 22.4684 55.6403 22.9489C54.8459 23.4293 53.9042 23.7763 52.8221 23.9861C51.751 24.1996 50.5575 24.3064 49.2527 24.3064Z" fill="#0A0A0B"/>
<path d="M68.0525 24.3064C65.9749 24.3064 64.3681 23.742 63.2286 22.6171C62.0892 21.4921 61.5212 19.7227 61.5212 17.305L61.5212 5.3807L66.3631 5.3807L66.3631 16.4585C66.3631 17.141 66.4386 17.7092 66.5968 18.1631C66.7513 18.6206 66.985 18.9906 67.2941 19.2728C67.6033 19.555 67.9734 19.7609 68.4048 19.8867C68.8362 20.0126 69.3286 20.0812 69.8786 20.0812C70.673 20.0812 71.3991 19.8943 72.0498 19.5168C72.7003 19.1431 73.2252 18.6206 73.6241 17.9533C74.0232 17.286 74.2208 16.5272 74.2208 15.6844L74.2208 5.37686L79.0951 5.37686L79.0951 23.8793L75.1159 23.8793L74.7528 21.065L74.5192 21.065C73.9873 21.7934 73.3905 22.3959 72.729 22.8764C72.0641 23.3569 71.3308 23.7153 70.5257 23.9479C69.7168 24.1882 68.8937 24.3064 68.0525 24.3064Z" fill="#0A0A0B"/>
<path d="M83.4695 30.3194L83.4695 5.38012L87.4164 5.38012L87.8478 8.05325L88.0813 8.05325C88.7679 6.92838 89.6342 6.13136 90.6839 5.6623C91.7334 5.19324 92.8765 4.96069 94.1166 4.96069C95.7306 4.96069 97.1289 5.30005 98.3115 5.98259C99.4941 6.66143 100.407 7.71773 101.047 9.14768C101.687 10.5777 102.007 12.4082 102.007 14.6352C102.007 16.8163 101.68 18.6239 101.029 20.0539C100.378 21.4839 99.4762 22.5516 98.326 23.2533C97.1756 23.955 95.8277 24.3096 94.2819 24.3096C93.5092 24.3096 92.7615 24.2142 92.0425 24.0274C91.3237 23.8405 90.6659 23.5507 90.0691 23.1656C89.4724 22.7804 88.962 22.3038 88.545 21.7394L88.3474 21.7394L88.3474 30.3232L83.4695 30.3232L83.4695 30.3194ZM92.7219 20.1187C93.7177 20.1187 94.5337 19.9242 95.177 19.5391C95.8169 19.154 96.2914 18.5667 96.6042 17.7812C96.9133 16.9955 97.0677 16.0651 97.0677 14.986L97.0677 14.2843C97.0677 13.1594 96.9133 12.2098 96.6042 11.4358C96.2949 10.6617 95.8205 10.082 95.177 9.6931C94.5337 9.30782 93.7068 9.1134 92.6896 9.1134C91.7406 9.1134 90.9355 9.32317 90.2848 9.74644C89.6342 10.1697 89.1346 10.7722 88.793 11.5577C88.448 12.3433 88.279 13.2776 88.279 14.353L88.279 14.8449C88.279 15.6418 88.3797 16.374 88.5774 17.0413C88.7752 17.7086 89.0591 18.273 89.4221 18.7306C89.7852 19.1883 90.2381 19.5353 90.7809 19.7679C91.3237 20.0043 91.9707 20.1187 92.7219 20.1187Z" fill="#0A0A0B"/>
<path d="M114.702 24.3064C112.603 24.3064 110.816 23.9594 109.346 23.2691C107.876 22.5789 106.754 21.515 105.981 20.085C105.208 18.655 104.82 16.836 104.82 14.6319C104.82 12.4278 105.205 10.6088 105.981 9.17883C106.754 7.74876 107.865 6.68875 109.313 5.99469C110.762 5.30447 112.513 4.95744 114.569 4.95744C116.582 4.95744 118.289 5.29679 119.691 5.97947C121.093 6.65817 122.157 7.69542 122.872 9.09108C123.591 10.4869 123.951 12.2371 123.951 14.3497L123.951 15.7912L109.827 15.7912C109.871 16.8704 110.083 17.7665 110.457 18.4834C110.83 19.2003 111.38 19.7227 112.099 20.0507C112.818 20.3786 113.706 20.5426 114.77 20.5426C115.299 20.5426 115.809 20.4778 116.294 20.3481C116.779 20.2185 117.222 20.0202 117.621 19.7494C118.02 19.4787 118.35 19.1469 118.616 18.7465C118.882 18.35 119.026 17.8923 119.048 17.3737L123.922 17.3737C123.922 18.4529 123.695 19.4253 123.243 20.2947C122.79 21.1642 122.164 21.8887 121.37 22.476C120.575 23.0632 119.612 23.5132 118.483 23.8297C117.355 24.1462 116.096 24.3064 114.702 24.3064ZM109.896 12.5918L118.846 12.5918C118.846 11.9359 118.742 11.36 118.53 10.8682C118.318 10.3762 118.027 9.96435 117.653 9.63638C117.275 9.30853 116.833 9.06819 116.326 8.91572C115.82 8.76312 115.255 8.68688 114.637 8.68688C113.688 8.68688 112.876 8.8318 112.2 9.12549C111.524 9.41905 110.999 9.85754 110.626 10.4449C110.248 11.0359 110.004 11.749 109.896 12.5918Z" fill="#0A0A0B"/>
<path d="M127.534 23.8829L127.534 5.38055L131.514 5.38055L131.913 8.40455L132.146 8.40455C132.366 7.77151 132.689 7.18426 133.106 6.64664C133.527 6.10889 134.041 5.68563 134.648 5.38055C135.256 5.07548 135.946 4.92288 136.722 4.92288C137.121 4.92288 137.484 4.95729 137.815 5.02969C138.146 5.09838 138.433 5.18229 138.678 5.27758L138.678 9.78115L136.755 9.78115C136.003 9.78115 135.356 9.90318 134.813 10.1511C134.271 10.3988 133.818 10.7497 133.455 11.2074C133.092 11.6649 132.826 12.1988 132.66 12.809C132.495 13.4191 132.412 14.1094 132.412 14.8834L132.412 23.8867L127.534 23.8867L127.534 23.8829Z" fill="#0A0A0B"/>
<path d="M147.593 24.3064C146.378 24.3064 145.382 24.1081 144.609 23.7077C143.837 23.3111 143.265 22.7162 142.902 21.9307C142.539 21.1451 142.356 20.1651 142.356 18.9944L142.356 9.25129L139.67 9.25129L139.67 5.38077L142.553 5.38077L143.481 0.000101786L147.226 0.000101622L147.226 5.38077L151.137 5.38077L151.137 9.25129L147.226 9.25129L147.226 18.2546C147.226 18.9562 147.363 19.4901 147.64 19.8562C147.916 20.2185 148.441 20.4015 149.214 20.4015L151.137 20.4015L151.137 23.742C150.85 23.8373 150.497 23.925 150.077 24.0051C149.656 24.0852 149.225 24.1577 148.783 24.2149C148.344 24.2759 147.949 24.3064 147.593 24.3064Z" fill="#0A0A0B"/>
<path d="M163.509 24.3064C161.41 24.3064 159.623 23.9594 158.153 23.2691C156.683 22.5789 155.561 21.515 154.788 20.085C154.016 18.655 153.627 16.836 153.627 14.6319C153.627 12.4278 154.016 10.6088 154.788 9.17883C155.561 7.74876 156.672 6.68875 158.121 5.99469C159.569 5.30447 161.32 4.95744 163.376 4.95744C165.385 4.95744 167.096 5.29679 168.498 5.97947C169.901 6.65817 170.964 7.69542 171.683 9.09108C172.402 10.4869 172.761 12.2371 172.761 14.3497L172.761 15.7912L158.638 15.7912C158.681 16.8704 158.893 17.7665 159.267 18.4834C159.641 19.2003 160.191 19.7227 160.91 20.0507C161.629 20.3786 162.517 20.5426 163.581 20.5426C164.113 20.5426 164.62 20.4778 165.105 20.3481C165.59 20.2185 166.032 20.0202 166.431 19.7494C166.83 19.4787 167.161 19.1469 167.427 18.7465C167.693 18.35 167.837 17.8923 167.858 17.3737L172.732 17.3737C172.732 18.4529 172.506 19.4253 172.054 20.2947C171.6 21.1642 170.975 21.8887 170.18 22.476C169.386 23.0632 168.422 23.5132 167.297 23.8297C166.162 24.1462 164.9 24.3064 163.509 24.3064ZM158.699 12.5918L167.653 12.5918C167.653 11.9359 167.549 11.36 167.337 10.8682C167.129 10.3762 166.834 9.96435 166.46 9.63638C166.083 9.30853 165.64 9.06819 165.134 8.91572C164.623 8.76312 164.062 8.68688 163.444 8.68688C162.495 8.68688 161.683 8.8318 161.007 9.12549C160.331 9.41905 159.806 9.85754 159.433 10.4449C159.055 11.0359 158.811 11.749 158.699 12.5918Z" fill="#0A0A0B"/>
<path d="M181.845 24.3064C181.072 24.3064 180.299 24.2225 179.522 24.0585C178.749 23.8945 178.059 23.6238 177.452 23.2501C176.845 22.8764 176.352 22.3425 175.979 21.6485C175.601 20.9583 175.414 20.0736 175.414 18.9944C175.414 17.6102 175.723 16.4928 176.342 15.6348C176.96 14.7806 177.855 14.1362 179.026 13.7015C180.198 13.2667 181.586 12.9807 183.189 12.8396C184.792 12.6986 186.554 12.6299 188.477 12.6299L188.477 11.5393C188.477 10.9062 188.35 10.3838 188.096 9.97579C187.84 9.56404 187.446 9.24362 186.902 9.00723C186.359 8.77456 185.637 8.65637 184.732 8.65637C183.937 8.65637 183.257 8.74412 182.693 8.91949C182.129 9.09498 181.697 9.32369 181.399 9.60587C181.1 9.88805 180.949 10.216 180.949 10.5898L180.949 11.013L176.176 11.013C176.154 10.872 176.136 10.7538 176.126 10.6622C176.114 10.5669 176.108 10.4525 176.108 10.3114C176.108 9.23223 176.449 8.29028 177.135 7.48187C177.823 6.67346 178.822 6.05193 180.137 5.61715C181.453 5.1825 183.027 4.96505 184.861 4.96505C186.694 4.96505 188.235 5.17483 189.486 5.59809C190.734 6.02136 191.69 6.6773 192.355 7.56962C193.017 8.46194 193.351 9.59832 193.351 10.9826L193.351 19.1088C193.351 19.5321 193.455 19.8524 193.667 20.0774C193.875 20.2986 194.138 20.413 194.448 20.413L195.838 20.413L195.838 23.7191C195.594 23.8373 195.209 23.9594 194.678 24.089C194.145 24.2187 193.526 24.2835 192.819 24.2835C191.999 24.2835 191.327 24.1729 190.795 23.9479C190.263 23.7268 189.85 23.4217 189.551 23.0327C189.254 22.6438 189.038 22.1938 188.905 21.679L188.639 21.679C188.175 22.1938 187.603 22.659 186.931 23.0671C186.255 23.4789 185.493 23.7878 184.641 23.9975C183.792 24.1996 182.858 24.3064 181.845 24.3064ZM183.3 20.5083C183.941 20.5083 184.565 20.4206 185.174 20.2452C185.781 20.0698 186.327 19.8219 186.816 19.5054C187.301 19.1889 187.7 18.7885 188.009 18.3079C188.318 17.8275 188.473 17.3051 188.473 16.7446L188.473 15.7264C186.748 15.7264 185.277 15.814 184.062 15.9895C182.848 16.1649 181.913 16.4586 181.262 16.8703C180.612 17.2822 180.285 17.8504 180.285 18.5749C180.285 19.044 180.418 19.4177 180.684 19.6999C180.949 19.982 181.312 20.188 181.776 20.3138C182.24 20.4435 182.751 20.5083 183.3 20.5083Z" fill="#0A0A0B"/>
<path d="M198.121 23.8826L198.121 5.38016L202.1 5.38016L202.499 8.16009L202.733 8.16009C203.196 7.43176 203.753 6.82929 204.408 6.34884C205.058 5.86827 205.762 5.51754 206.513 5.29254C207.265 5.07137 208.038 4.95689 208.836 4.95689C210.184 4.95689 211.323 5.20862 212.251 5.71196C213.178 6.2153 213.886 7.03139 214.372 8.15626L214.606 8.15626C215.091 7.42792 215.662 6.82545 216.313 6.345C216.963 5.86444 217.682 5.5137 218.47 5.2887C219.253 5.06754 220.055 4.95318 220.874 4.95318C222.179 4.95318 223.289 5.18956 224.207 5.65478C225.123 6.12384 225.835 6.87508 226.346 7.90465C226.852 8.93806 227.107 10.2498 227.107 11.8439L227.107 23.875L222.201 23.875L222.201 12.7247C222.201 12.0689 222.129 11.5044 221.985 11.0355C221.842 10.5664 221.636 10.1926 221.37 9.91046C221.104 9.62828 220.767 9.43002 220.361 9.31182C219.95 9.1935 219.516 9.13633 219.052 9.13633C218.323 9.13633 217.653 9.31937 217.046 9.68162C216.439 10.0439 215.954 10.5626 215.587 11.2299C215.224 11.8972 215.04 12.6561 215.04 13.4988L215.04 23.875L210.199 23.8749L210.199 12.7247C210.199 12.0689 210.119 11.5044 209.965 11.0353C209.81 10.5664 209.594 10.1926 209.318 9.91046C209.041 9.62828 208.71 9.43002 208.322 9.31182C207.934 9.1935 207.488 9.13633 206.977 9.13633C206.248 9.13633 205.579 9.31937 204.972 9.68162C204.364 10.0439 203.883 10.5626 203.53 11.2299C203.178 11.8972 202.998 12.6561 202.998 13.4988L202.998 23.8749L198.121 23.8749L198.121 23.8826Z" fill="#0A0A0B"/>
<path d="M26.198 6.20895H33.2116V8.89334C33.2116 12.534 30.2427 15.4766 26.5695 15.4766H26.198V6.20895ZM16.2165 2.31006H26.198V27.6505H25.0103C17.7747 27.6505 16.3274 22.649 16.3274 18.1983L16.2165 2.31006ZM0 8.04794C0 12.5713 3.26511 14.2267 6.90169 14.7785H0V27.7242H6.64214C13.3219 27.7242 14.1005 24.7816 14.1005 21.9863C14.1005 18.5655 11.726 16.1757 8.05181 15.2557H14.1005V2.31006H7.45841C0.779602 2.31006 0 5.25264 0 8.04794Z" fill="#0A0A0B"/>
<g clip-path="url(#clip0_499_1743)">
<path d="M272.289 11.931C272.61 11.6144 272.996 11.3718 273.44 11.2305C274.319 10.9504 275.221 10.9147 276.123 11.1341C276.295 11.1761 276.506 11.2287 276.719 11.3032C276.915 11.3718 277.125 11.391 277.354 11.3602C277.825 11.2974 278.117 11.1448 278.326 10.8617C278.528 10.587 278.512 10.1749 278.341 9.95554C278.232 9.81551 278.114 9.71428 277.981 9.6407C277.66 9.46411 277.378 9.30536 277.088 9.16712C276.482 8.87771 275.927 8.49108 275.455 7.96488C275.011 7.47123 274.437 7.18538 273.721 7.0632C273.494 7.0244 273.319 7.02262 272.97 6.98828L272.594 6.95127L272.359 6.65829C272.271 6.54859 272.198 6.45583 272.116 6.35684C271.837 6.01792 271.563 5.75349 271.256 5.5653C270.735 5.24556 270.159 5.02795 269.534 4.89105C269.332 4.8469 269.136 4.8411 268.951 4.87455C268.861 4.8906 268.824 4.92226 268.81 4.93742C268.798 4.9508 268.774 4.98246 268.769 5.05916C268.764 5.14032 268.77 5.24378 268.792 5.36374C268.852 5.68749 269.016 6.00187 269.283 6.35238C269.577 6.73766 269.893 7.02574 270.265 7.21392C270.278 7.22061 270.329 7.24648 270.386 7.2826C270.443 7.31961 270.536 7.3865 270.624 7.49353C270.852 7.77001 270.897 8.12096 270.798 8.42598L270.702 8.72431L270.439 8.89733C269.905 9.24917 269.252 9.39544 268.561 9.16623C268.314 9.08418 268.077 8.97626 267.859 8.85318C267.404 8.59499 266.98 8.28149 266.601 7.9136C266.16 7.48505 265.725 7.0467 265.3 6.59809C264.656 5.91848 264.05 5.2799 263.384 4.71089C262.787 4.20118 262.215 3.73652 261.6 3.35123C260.993 2.97129 260.391 2.64933 259.763 2.42101C258.864 2.09414 257.941 1.91666 256.989 1.89882C256.235 1.88455 255.497 1.95278 254.769 2.11153C253.84 2.31398 252.972 2.66583 252.158 3.1626C250.894 3.93318 249.806 4.88703 248.905 6.04513C248.404 6.6895 247.958 7.36956 247.469 8.09197C246.616 9.35308 245.68 10.5874 244.567 11.7018C244.05 12.2195 243.496 12.7163 242.89 13.1667C241.994 13.8334 240.999 14.4296 239.835 14.7761C239.08 15.0013 238.302 15.0869 237.507 15.008C237.022 14.9598 236.504 14.8586 235.997 14.641C235.044 14.2329 234.24 13.6283 233.574 12.8599C233.102 12.3163 232.639 11.713 232.279 11.012C232.228 10.9834 232.2 10.9758 232.189 10.9741C232.187 10.9749 232.183 10.9763 232.175 10.9794C232.155 10.9888 232.11 11.0133 232.044 11.0731C232.044 11.0731 232.043 11.0744 232.042 11.0753C232.032 11.3553 232.058 11.5841 232.132 11.7861C232.427 12.6022 232.813 13.3518 233.318 14.0274C233.852 14.74 234.495 15.3317 235.254 15.8133C236.256 16.4501 237.368 16.7757 238.582 16.8524C239.319 16.8988 240.044 16.8747 240.758 16.7596C241.424 16.6526 242.075 16.4929 242.713 16.282C243.633 15.9779 244.52 15.5699 245.396 15.0945C246.291 14.6093 247.133 14.0764 247.905 13.457C248.086 13.3112 248.275 13.1636 248.458 13.0191L249.147 12.4733L249.708 13.1502C249.769 13.2238 249.845 13.3148 249.914 13.3999C250.424 14.03 251.008 14.5513 251.689 14.9518C252.103 15.1953 252.546 15.4004 253.034 15.6234C253.518 15.8446 253.999 16.1041 254.454 16.4203C255.166 16.913 255.742 17.5186 256.234 18.1621C256.966 19.1195 257.464 20.1724 257.851 21.2341C258.135 22.0114 258.301 22.8052 258.447 23.5392C258.534 23.9757 258.585 24.2808 258.697 24.5773C258.871 25.0389 259.175 25.3501 259.655 25.5615C259.974 25.702 260.325 25.792 260.756 25.8942C261.571 26.0877 262.415 26.3232 263.259 26.696L263.266 26.6991L263.273 26.7026C263.647 26.8761 263.972 27.0304 264.312 27.1847C264.887 27.4465 265.42 27.6984 265.971 27.9299C266.57 28.1814 267.174 28.3495 267.793 28.411C268.138 28.4454 268.465 28.4355 268.781 28.374C268.95 28.341 269.09 28.2763 269.209 28.1814C269.333 28.0819 269.37 27.9883 269.355 27.8349C269.339 27.6792 269.268 27.5129 269.106 27.3283C268.865 27.0545 268.576 26.8342 268.234 26.6567C267.803 26.4333 267.332 26.2643 266.824 26.1189C266.121 25.9182 265.446 25.7448 264.717 25.5432C264.114 25.3769 263.508 25.1557 262.926 24.8382C262.012 24.3396 261.345 23.5954 260.954 22.6317C260.772 22.184 260.671 21.7282 260.588 21.3461C260.383 20.4029 260.317 19.4366 260.235 18.5813C260.189 18.1023 260.148 17.6185 260.105 17.1476C260.096 17.0522 260.062 16.7899 260.113 16.5059L260.283 15.5498L261.226 15.7991C261.716 15.9288 262.082 16.043 262.489 16.1291C262.909 16.2183 263.304 16.266 263.807 16.348L264.123 16.3997L264.307 16.6076C264.337 16.6379 264.376 16.6816 264.415 16.7387C264.467 16.8145 264.548 16.9581 264.568 17.1574V17.1583C264.627 17.7594 264.554 18.3409 264.382 18.8939C264.332 19.054 264.238 19.289 264.042 19.4972C263.845 19.705 263.589 19.8388 263.299 19.8856C263.286 19.8905 263.269 19.8968 263.25 19.903C263.23 19.9097 263.207 19.9168 263.181 19.924C263.027 19.9668 262.902 20.035 262.801 20.1251C262.606 20.2999 262.579 20.4288 262.627 20.6138C262.704 20.909 262.861 21.0625 263.199 21.1334C263.522 21.2011 263.864 21.1432 264.239 20.9492C264.608 20.7588 264.914 20.4845 265.163 20.1229C265.457 19.6979 265.694 19.2256 265.928 18.7021C266.076 18.3708 266.242 17.9819 266.431 17.6127C266.738 17.0116 267.194 16.4956 267.825 16.1411C268.015 16.0336 268.249 15.9275 268.372 15.8669C268.98 15.5667 269.515 15.2305 269.971 14.8042C270.429 14.3752 270.814 13.8651 271.219 13.2849C271.502 12.8786 271.844 12.3712 272.289 11.9324L272.289 11.931Z" fill="#FECE00"/>
<path d="M263.739 16.5222C263.736 16.5198 263.734 16.518 263.732 16.5168C263.734 16.5174 263.735 16.5186 263.736 16.5192C263.738 16.5204 263.741 16.5227 263.744 16.5251C263.742 16.5239 263.741 16.5227 263.74 16.5222H263.739Z" fill="black"/>
<path d="M231.887 11.0647L231.885 11.0625L231.887 11.0647Z" fill="black"/>
</g>
<defs>
<clipPath id="clip0_499_1743">
<rect width="46.433" height="26.5332" fill="white" transform="translate(231.567 1.89551)"/>
</clipPath>
</defs>
</svg>
