<?xml version="1.0" encoding="utf-8"?>
<!-- Generator: Adobe Illustrator 19.2.1, SVG Export Plug-In . SVG Version: 6.00 Build 0)  -->
<svg version="1.1" id="layer" xmlns="http://www.w3.org/2000/svg" xmlns:xlink="http://www.w3.org/1999/xlink" x="0px" y="0px"
	 viewBox="0 0 652 652" style="enable-background:new 0 0 652 652;" xml:space="preserve">
<style type="text/css">
	.st0{fill-rule:evenodd;clip-rule:evenodd;fill:#25303B;}
</style>
<path class="st0" d="M274.6,107.3c1.1-3.2,12-52.1,43.6-18.3c29.4,31.2,60.2,61,92.4,89.3c34.4,30.9,99.3,34.6,145.2,38.7l2.1,0.3
	c30.8,2.9,36.5,6.6,40.8,12l0.9,1.1c5.5,7.3,1.9,15.9,1.4,17l-10,18.6l-11,19.1l-31.1,58.3c0,0-11.6,21.2-7.8,41
	c1.8,9.5,6.4,20.5,6.4,20.5l39.9,89.6c5.4,12.3,1.6,17.7,1.1,18.4c-0.5,0.6-3,5.4-11.3,3.4c-27-6.7-29.5-7.6-102.5-30.4
	c-69.4-21.7-97-17.4-118-4.6c-21.1,12.8-49.9,29.9-90.5,57.9c-17.5,12-30,20.1-39.3,26.3c-13.7,9-23.9,13.7-33.2,10.7
	c-9.2-2.9-11.4-13.2-11.7-16.2l-2-17.7l-13.5-113.9c-6.4-53.5-40.3-88.2-40.3-88.2l-69-77c-15.8-20.8,12.6-25.4,12.6-25.4
	s57.9-13.6,110-24.1c54.3-11.1,61.6-22.9,72.5-46.3C262.8,143.9,273.4,110.6,274.6,107.3L274.6,107.3z M266.6,358
	c-3.8,0-4.5,3.5-4.5,7v79.5c0,3,2.8,3.9,4.5,3.9c0,0,13.9-2.4,15.3-13.3v-15.3c3.4,1.8,7.5,2.7,12.3,2.7c8.8,0,16.1-3.3,21.8-9.8
	c5.3-6.2,8.1-14.2,8-22.4c0-9.2-2.4-16.8-7.2-22.6c-5.3-6.4-13.3-10-21.7-9.6c-6.4,0-12.5,1.5-16.6,4.5
	C275,360.1,270.9,358.4,266.6,358L266.6,358z M334,358c-3.8,0-4.4,3.5-4.4,7v79.5c0,3,2.8,3.9,4.4,3.9c0,0,13.9-2.4,15.3-13.3v-15.3
	c3.4,1.8,7.5,2.7,12.3,2.7c8.8,0,16.2-3.3,21.8-9.8c5.3-6.2,8.1-14.2,7.9-22.4c0-9.2-2.4-16.8-7.2-22.6c-5.3-6.4-13.3-10-21.6-9.6
	c-6.4,0-12.5,1.5-16.7,4.5C342.4,360.1,338.3,358.4,334,358L334,358z M428,358.5c-9.2,0-16.9,3.1-22.8,9.2
	c-5.9,6.2-9.1,14.6-8.8,23.1c0,9.7,2.9,17.5,8.5,23.3c6,6.1,14.5,9.3,23,8.7c7.9-0.1,15.4-3.8,20.2-10.1c4-6.1,0.6-8.1,0.6-8.1
	c-0.7-0.8-2.4-0.4-3.4,0.2c-3.8,2.2-8.6,3.8-13.8,3.8c-6.5,0-12.1-2.5-13.7-6.7c2,0.2,5.3,0.3,7.5,0.3c7.2,0,13.5-1.6,18.5-4.9
	c6-4,9.1-9.8,9.1-17.3c0-6.9-2.6-12.4-7.9-16.4C440.1,360.1,434.1,358.3,428,358.5L428,358.5z M489.1,358.5
	c-9.2,0-16.9,3.1-22.8,9.2c-5.9,6.2-9,14.6-8.8,23.1c0,9.7,2.9,17.5,8.5,23.3c6,6.1,14.4,9.3,23,8.7c8-0.1,15.4-3.8,20.3-10.1
	c4-6.1,0.5-8.1,0.5-8.1c-0.6-0.8-2.4-0.4-3.4,0.2c-3.8,2.2-8.7,3.8-13.9,3.8c-6.5,0-12-2.5-13.7-6.7c2,0.2,5.3,0.3,7.5,0.3
	c7.3,0,13.5-1.6,18.5-4.9c6.1-4,9.1-9.8,9.1-17.3c0-6.9-2.7-12.4-7.9-16.4C501.3,360.1,495.3,358.3,489.1,358.5L489.1,358.5z
	 M202.8,343.3h-0.6c-8.1,0.2-13.8,2.3-13.8,2.3c-1.6,0.6-2.6,1.4-2.8,2.9v9h-5.9c-1.7,0-3.1,1.4-3.1,3.1v9.2c0,1.8,1.4,3.1,3.1,3.1
	h5.7v30.3c0,12.6,7.1,19.5,19.9,19.5c15.6,0,18-14.1,18-14.1c0-0.7-0.2-1.3-0.7-1.8c-0.7-0.7-2.1-0.9-3-0.4c-3,1.4-5.6,2.9-8.4,2.5
	c-1.4-0.2-3.9-1.1-4.6-2.7c-0.1-0.4-0.9-1.7-0.9-5.9V373h4.3c0,0,3.8-0.2,6.9-2.3c2.7-1.7,5.4-4.8,6.4-10c0-1.7-1.4-3.1-3.1-3.1
	h-14.5v-11.1c0-1.9-1.7-3.4-3.5-3.1H202.8z M248.3,359.4c-6.7-1.7-13.7,0-13.7,0c-1.8,0.4-3.1,2-3,3.8V417c0,1.7,1,3.6,3,4.2
	c0,0,6.4,2,13.7,0c2.1-0.7,3-2.5,3-4.2v-53.8C251.3,361.4,250.1,359.8,248.3,359.4L248.3,359.4z M292.2,373.7c3.9,0,6.6,1.6,8.6,4.9
	c1.8,3,2.7,7,2.7,11.7c0,4.8-1,8.8-2.8,11.8c-2,3.4-4.8,4.9-8.9,4.9c-6.3,0-8.1-2.8-8.8-4.9c-0.5-1.1-1.2-4.3-1.2-13.3
	c0-5.1,0.6-8.8,1.9-11.1C284.8,375.9,286.7,373.7,292.2,373.7L292.2,373.7z M359.6,373.7c3.8,0,6.6,1.6,8.7,4.9
	c1.8,3,2.7,7,2.7,11.7c0,4.8-0.9,8.8-2.8,11.8c-2,3.4-4.8,4.9-8.8,4.9c-6.3,0-8.1-2.8-8.8-4.9c-1.1-4.4-1.5-8.9-1.2-13.3
	c0-5.1,0.7-8.8,1.9-11.1C352.1,375.9,354.1,373.7,359.6,373.7L359.6,373.7z M427,373.5c2.1,0,3.7,0.6,4.9,1.8
	c1.2,1.2,1.8,2.7,1.8,4.8c0,2.4,0,8-11.8,8c-1.9,0-3.6-0.2-5.2-0.4c0.2-3.7,1-6.8,2.3-9.4C420.8,375,423.3,373.5,427,373.5
	L427,373.5z M488.1,373.5c2.1,0,3.7,0.6,4.9,1.8c1.2,1.2,1.8,2.7,1.8,4.8c0,2.4,0,8-11.9,8c-1.9,0-3.6-0.2-5.2-0.4
	c0.2-3.7,1-6.8,2.4-9.4C482,375,484.4,373.5,488.1,373.5L488.1,373.5z M241.5,335c-2.9,0-5.4,1-7.5,2.8c-4.2,3.6-4.2,10.2,0,13.8
	c2.1,1.9,4.6,2.8,7.5,2.8c2.9,0,5.4-0.9,7.5-2.8c4.4-3.6,4.4-10.3,0-13.9C246.9,336,244.4,335,241.5,335L241.5,335z M199.5,265.4
	c-9.3,0-17.1,3-23.2,9c-6,6-9.2,13.8-9.2,23.2c-0.2,8.6,3,17,9.2,23.1c6,6,13.9,9.1,23.2,9.1c9.3,0,17.1-3,23.1-9
	c6-6,9.1-13.8,9.1-23.2c0-9.4-3-17.1-9.1-23.2C216.6,268.4,208.9,265.4,199.5,265.4L199.5,265.4z M521.4,265.4
	c-9.2,0-16.9,3.1-22.8,9.2c-5.9,6.2-9.1,14.6-8.8,23.2c0,9.7,2.9,17.5,8.5,23.3c6,6.1,14.4,9.3,23,8.6c7.9-0.1,15.4-3.8,20.2-10
	c4.1-6,0.6-8.1,0.6-8.1c-0.6-0.8-2.4-0.4-3.4,0.2c-3.8,2.2-8.6,3.8-13.8,3.8c-6.5,0-12-2.4-13.7-6.7c2,0.2,5.3,0.3,7.5,0.3
	c7.3,0,13.5-1.6,18.5-4.9c6.1-4,9.2-9.8,9.2-17.3c0-6.9-2.6-12.3-7.9-16.4C533.6,267,527.5,265.2,521.4,265.4L521.4,265.4z
	 M460.3,265.4c-9.2,0-16.9,3.1-22.8,9.2c-5.9,6.2-9.1,14.6-8.8,23.2c-0.4,8.6,2.7,17,8.5,23.3c6,6.1,14.5,9.3,23,8.6
	c7.9-0.1,15.4-3.8,20.2-10c4-6,0.6-8.1,0.6-8.1c-0.7-0.8-2.4-0.4-3.4,0.2c-3.8,2.2-8.6,3.8-13.8,3.8c-6.6,0-12.1-2.4-13.8-6.7
	c2,0.2,5.4,0.3,7.5,0.3c7.3,0,13.5-1.6,18.5-4.9c6-4,9.2-9.8,9.2-17.3c0-6.9-2.7-12.3-7.9-16.4C472.4,267,466.4,265.2,460.3,265.4
	L460.3,265.4z M145.5,250.2h-0.6c-8.1,0.3-13.8,2.3-13.8,2.3c-1.6,0.6-2.6,1.4-2.8,2.9v9h-5.8c-1.7,0-3.1,1.4-3.1,3.1v9.2
	c0,1.8,1.4,3.1,3.1,3.1h5.7v30.3c0,12.7,7,19.5,19.9,19.5c15.6,0,18-14.1,18-14.1c0-0.7-0.2-1.3-0.7-1.8c-0.7-0.8-2-0.9-2.9-0.5
	c-3,1.4-5.7,2.9-8.4,2.5c-1.4-0.2-3.9-1-4.6-2.7c-0.1-0.3-0.9-1.7-0.9-5.8v-27.4h4.4c0.5,0,3.9-0.4,6.8-2.3c2.7-1.6,5.4-4.8,6.5-10
	c0-1.7-1.4-3.1-3.1-3.1h-14.5v-11.1c0-1.9-1.6-3.4-3.5-3.1H145.5z M340.3,264.7h-1c-4.1,0.3-5,3.4-5,6.4v52.1c0,1.7,0.4,4,3,5.2
	c0,0,6.1,2,13.7,0c3-1,3-3.5,3-5.2v-27.4c0-5.9,1-8.6,1.8-9.9c1.8-2.9,4.1-4.2,7.2-4.2c3.1,0,6,1,6,8.2v33.8c0,1.7,0.7,3.9,3,4.6
	c0,0,6.1,1.6,13.3,0c2.4-0.7,3-3,3-4.6v-28.1c0-5.7,1-8.4,1.8-9.7c1.7-2.9,4-4.2,7.2-4.2c3.1,0,6,1,6,8.2v34.3
	c0,1.7,1.1,3.8,3.9,4.1c0,0,4.2,1,12,0c2.7-0.3,3.8-2.3,3.8-4.5v-36.4c0-14.4-7.2-22-21.1-22c-6.7-0.2-13.1,2.6-17.6,7.5
	c-2.9-4-7.8-7.5-16.8-7.5c-5.8,0-11.9,1.7-16,5l-1-0.9c-2-2-7.7-5.3-11.2-4.9H340.3z M243.9,264.7H243c-4.1,0.3-5.1,3.4-5.1,6.4
	v52.1c0,1.7,0.3,4,3,5.2c0,0,6.1,2,13.7,0c3-1,3-3.5,3-5.2v-27.4c0-5.9,1-8.6,1.8-9.9c1.8-2.9,4.1-4.2,7.2-4.2c3.1,0,6,1,6,8.2v33.8
	c0,1.7,0.7,3.9,3,4.6c0,0,6.1,1.6,13.3,0c2.4-0.7,3-3,3-4.6v-28.1c0-5.7,1-8.4,1.8-9.7c1.7-2.9,4-4.2,7.2-4.2c3,0,6,1,6,8.2v34.3
	c0,1.7,1.1,3.8,3.9,4.1c0,0,4.2,1,12,0c2.7-0.3,3.8-2.3,3.8-4.5v-36.4c0-14.4-7.2-22-21.1-22c-6.7-0.2-13.1,2.6-17.5,7.5
	c-2.9-4-7.9-7.5-16.8-7.5c-5.8,0-11.8,1.7-16,5l-1-0.9c-2-2-7.7-5.3-11.2-4.9H243.9z M199.5,282c4.9,0,8.3,1.4,10.7,4.5
	c2.1,2.8,3.1,6.5,3.1,11.1c0,4.6-1,8.3-3.1,11.1c-2.4,3.1-5.8,4.6-10.7,4.6c-4.9,0-8.3-1.4-10.7-4.6c-2.2-3.3-3.3-7.1-3.1-11.1
	c0-4.6,1-8.4,3.1-11.1C191.2,283.5,194.7,282,199.5,282L199.5,282z M520.4,280.4c2.1,0,3.7,0.6,4.9,1.8c1.2,1.1,1.8,2.7,1.8,4.8
	c0,2.4,0,7.8-11.9,7.8c-1.9,0-3.6-0.1-5.2-0.4c0.2-3.7,1-6.9,2.4-9.4C514.3,281.9,516.7,280.4,520.4,280.4L520.4,280.4z
	 M459.2,280.4c2.2,0,3.8,0.6,5,1.8c1.2,1.1,1.8,2.7,1.8,4.8c0,2.4,0,7.8-11.8,7.8c-1.9,0-3.6-0.1-5.2-0.4c0.2-3.7,0.9-6.9,2.3-9.4
	C453.1,281.9,455.6,280.4,459.2,280.4L459.2,280.4z M565,238.1c-2.9,0-5.4,1.1-7.6,3.1c-2.2,2-3.2,4.6-3.2,7.5c0,3,1,5.4,3.2,7.5
	c2.1,2,4.6,3,7.6,3s5.5-1,7.6-3c2.1-2,3.2-4.6,3.2-7.5c0-3-1.1-5.5-3.2-7.5C570.6,239.2,567.8,238.1,565,238.1L565,238.1z
	 M565,240.1c4.8,0,8.6,3.9,8.6,8.7c0,2.4-0.8,4.4-2.4,6.1c-1.7,1.7-3.7,2.5-6.1,2.5c-2.4,0-4.4-0.8-6-2.5c-1.6-1.6-2.5-3.8-2.5-6.1
	c0-2.4,0.8-4.4,2.5-6.2C560.6,240.9,562.5,240.1,565,240.1L565,240.1z M565.1,242.6H561v12h2.5v-5.2h1l2.6,5.2h2.8l-3-5.6
	c0.7-0.3,1.3-0.6,1.7-1.3c0.4-0.6,0.6-1.2,0.6-2c0-1-0.5-1.9-1.3-2.4C567.1,242.8,566.1,242.6,565.1,242.6L565.1,242.6z
	 M564.7,244.4c1.4,0,2,0.5,2,1.7c0,1.2-0.7,1.7-2,1.7h-1.2v-3.5L564.7,244.4z M564.7,244.4"/>
</svg>
